Coordinates
version=1
nRows=14
nColumns=63
inDegrees=yes

Units are S.I. units (second, meters, Newtons, ...)
If the header above contains a line with 'inDegrees', this indicates whether rotational values are in degrees (yes) or radians (no).

endheader
time	pelvis_tilt	pelvis_list	pelvis_rotation	pelvis_tx	pelvis_ty	pelvis_tz	hip_flexion_r	hip_adduction_r	hip_rotation_r	knee_angle_r	knee_angle_r_beta	ankle_angle_r	subtalar_angle_r	mtp_angle_r	hip_flexion_l	hip_adduction_l	hip_rotation_l	knee_angle_l	knee_angle_l_beta	ankle_angle_l	subtalar_angle_l	mtp_angle_l	L5_S1_Flex_Ext	L5_S1_Lat_Bending	L5_S1_axial_rotation	L4_L5_Flex_Ext	L4_L5_Lat_Bending	L4_L5_axial_rotation	L3_L4_Flex_Ext	L3_L4_Lat_Bending	L3_L4_axial_rotation	L2_L3_Flex_Ext	L2_L3_Lat_Bending	L2_L3_axial_rotation	L1_L2_Flex_Ext	L1_L2_Lat_Bending	L1_L2_axial_rotation	L1_T12_Flex_Ext	L1_T12_Lat_Bending	L1_T12_axial_rotation	Abs_r3	Abs_r2	Abs_r1	Abs_t1	Abs_t2	neck_flexion	neck_bending	neck_rotation	arm_flex_r	arm_add_r	arm_rot_r	elbow_flex_r	pro_sup_r	wrist_flex_r	wrist_dev_r	arm_flex_l	arm_add_l	arm_rot_l	elbow_flex_l	pro_sup_l	wrist_flex_l	wrist_dev_l
11.000000	-0.045396	-5.533230	90.995860	0.029208	0.906967	0.608714	4.422603	-1.413101	8.167252	17.681662	0.308603	37.717760	-7.441812	0.000000	-2.074140	2.028391	-5.098475	4.875045	0.085086	36.825804	2.740855	0.000000	0.001619	-0.113807	2.316244	0.003006	-0.151363	2.461010	0.002659	-0.276710	2.461010	0.001850	-0.276710	2.026714	0.001503	-0.232075	1.881949	0.000925	-0.176287	1.737183	0.011562	-1.287404	12.882257	0.000000	0.000000	26.527025	-2.908579	-11.702895	-0.301662	-9.354650	9.253005	146.576173	89.083667	-1.807720	-6.824964	13.098799	-17.601443	45.404050	140.618060	81.745518	-26.136567	-4.698154
11.016667	-0.035936	-5.607527	91.158180	0.028910	0.906984	0.608833	4.471588	-1.422224	8.049815	17.642598	0.307921	37.670253	-7.526004	0.000000	-1.951171	2.017946	-5.095684	4.947606	0.086352	36.835760	2.901201	0.000000	0.003694	-0.110309	2.220639	0.006861	-0.146712	2.359428	0.006069	-0.268206	2.359428	0.004222	-0.268206	1.943059	0.003431	-0.224943	1.804269	0.002111	-0.170869	1.665479	0.026388	-1.247843	12.350525	0.000000	0.000000	26.631523	-2.844445	-11.358876	-0.105137	-9.683063	9.411000	146.766008	89.093085	-1.820846	-7.012708	12.617270	-18.040446	46.378008	140.936207	81.923844	-28.647550	-5.632663
11.033333	-0.037405	-5.700536	91.391704	0.028582	0.907019	0.609017	4.535407	-1.454093	7.806723	17.596762	0.307121	37.663578	-7.501417	0.000000	-1.784473	2.011665	-5.125737	5.047035	0.088087	36.863775	3.165762	0.000000	0.007711	-0.112868	2.110250	0.014320	-0.150114	2.242141	0.012669	-0.274427	2.242141	0.008813	-0.274427	1.846469	0.007161	-0.230160	1.714578	0.004406	-0.174832	1.582688	0.055080	-1.276782	11.736578	0.000000	0.000000	26.736789	-2.704991	-11.153528	0.095881	-9.910901	9.372537	147.053204	89.106637	-1.955845	-6.912926	12.064082	-18.540612	47.071571	141.229246	82.309698	-30.479977	-6.413624
11.050000	-0.059356	-5.800313	91.635514	0.028330	0.907097	0.609253	4.613640	-1.499145	7.579216	17.558753	0.306458	37.678902	-7.486648	0.000000	-1.592658	2.018876	-5.238927	5.172476	0.090277	36.897208	3.516460	0.000000	0.011306	-0.123183	1.999144	0.020996	-0.163833	2.124090	0.018574	-0.299506	2.124090	0.012921	-0.299506	1.749251	0.010498	-0.251194	1.624304	0.006460	-0.190810	1.499358	0.080755	-1.393466	11.118638	0.000000	0.000000	26.853611	-2.452256	-11.097723	0.336283	-9.984639	8.975192	147.451577	89.123415	-1.976470	-6.359996	11.467389	-19.065565	47.382757	141.544255	82.700553	-31.429997	-6.564305
11.066667	-0.108709	-5.935494	91.889520	0.028160	0.907210	0.609542	4.733748	-1.577648	7.289499	17.517721	0.305742	37.726997	-7.376163	0.000000	-1.356952	2.048392	-5.463636	5.302311	0.092543	36.922130	4.002626	0.000000	0.018720	-0.143015	1.894280	0.034764	-0.190210	2.012672	0.030754	-0.347727	2.012672	0.021395	-0.347727	1.657495	0.017383	-0.291636	1.539102	0.010696	-0.221530	1.420710	0.133713	-1.617815	10.535416	0.000000	0.000000	26.989115	-2.117560	-11.264676	0.621818	-9.918603	8.188356	147.913338	89.141881	-2.060636	-5.629121	10.867980	-19.617524	47.328383	141.827075	83.176835	-31.441271	-6.279149
11.083333	-0.166954	-6.081050	92.165519	0.028053	0.907390	0.609894	4.867953	-1.664829	6.959742	17.472219	0.304948	37.781806	-7.225398	0.000000	-1.092682	2.078690	-5.758921	5.459123	0.095280	36.946328	4.581544	0.000000	0.027410	-0.168305	1.787102	0.050903	-0.223846	1.898795	0.045032	-0.409217	1.898795	0.031327	-0.409217	1.563714	0.025453	-0.343208	1.452020	0.015662	-0.260705	1.340326	0.195785	-1.903901	9.939322	0.000000	0.000000	27.123669	-1.703131	-11.554298	1.046195	-9.705487	6.990972	148.368956	89.153856	-2.119184	-4.588850	10.248736	-20.129884	46.799268	142.083719	83.715353	-30.533556	-5.430156
11.100000	-0.221385	-6.202916	92.477766	0.027973	0.907671	0.610324	4.980521	-1.753956	6.534924	17.421877	0.304069	37.841496	-6.987896	0.000000	-0.838433	2.092703	-6.140909	5.635617	0.098360	36.980893	5.297772	0.000000	0.033932	-0.195195	1.671666	0.063015	-0.259610	1.776145	0.055747	-0.474598	1.776145	0.038781	-0.474598	1.462708	0.031509	-0.398042	1.358229	0.019389	-0.302357	1.253750	0.242372	-2.208087	9.297307	0.000000	0.000000	27.225849	-1.218089	-11.859928	1.688994	-9.360446	5.378196	148.731413	89.147078	-2.066807	-3.164144	9.627330	-20.545101	45.711402	142.249523	83.951646	-28.472577	-4.089289
11.116667	-0.299825	-6.327483	92.759595	0.028020	0.908017	0.610861	5.115157	-1.851791	6.196665	17.388785	0.303492	37.864287	-6.839619	0.000000	-0.572632	2.126601	-6.569108	5.826623	0.101694	36.992172	6.023426	0.000000	0.043074	-0.228290	1.565294	0.079993	-0.303626	1.663124	0.070767	-0.555065	1.663124	0.049230	-0.555065	1.369632	0.039999	-0.465529	1.271801	0.024613	-0.353621	1.173970	0.307676	-2.582464	8.705694	0.000000	0.000000	27.290534	-0.667018	-12.283845	2.547811	-8.918531	3.479088	148.906010	89.123712	-2.345310	-1.684627	9.077170	-20.851231	44.144142	142.336941	83.972570	-25.569014	-2.147026
11.133333	-0.371694	-6.417994	93.017338	0.028132	0.908450	0.611499	5.230024	-1.938721	5.868975	17.365108	0.303078	37.859200	-6.685253	0.000000	-0.330740	2.143034	-7.137958	6.039639	0.105412	37.025531	6.896962	0.000000	0.052111	-0.260551	1.463398	0.096776	-0.346533	1.554861	0.085614	-0.633504	1.554861	0.059558	-0.633504	1.280474	0.048390	-0.531316	1.189011	0.029776	-0.403594	1.097549	0.372225	-2.947406	8.138982	0.000000	0.000000	27.262428	-0.087268	-12.680543	3.675230	-8.427221	1.365940	148.831301	89.073033	-2.890081	0.010017	8.588301	-21.010600	42.082701	142.289101	83.536013	-21.733652	0.166675
11.150000	-0.421850	-6.454994	93.247829	0.028265	0.908972	0.612226	5.302599	-2.004092	5.527617	17.345299	0.302733	37.827888	-6.494006	0.000000	-0.143973	2.137228	-7.668155	6.251528	0.109110	37.043983	7.686109	0.000000	0.059692	-0.288589	1.368421	0.110854	-0.383824	1.453947	0.098068	-0.701676	1.453947	0.068222	-0.701676	1.197368	0.055430	-0.588491	1.111842	0.034108	-0.447025	1.026316	0.426373	-3.264579	7.610746	0.000000	0.000000	27.113225	0.485242	-13.021812	5.054894	-7.942761	-0.864906	148.449099	89.001793	-3.733002	1.751993	8.185562	-20.993003	39.597774	142.087780	82.791896	-17.100720	2.622120
11.166667	-0.464996	-6.450150	93.416085	0.028454	0.909544	0.613029	5.351603	-2.046470	5.315970	17.340524	0.302649	37.756840	-6.415989	0.000000	-0.004519	2.122355	-8.257937	6.461349	0.112772	37.063820	8.486222	0.000000	0.067643	-0.313511	1.284200	0.125619	-0.416970	1.364462	0.111130	-0.762272	1.364462	0.077309	-0.762272	1.123675	0.062813	-0.639313	1.043412	0.038651	-0.485629	0.963150	0.483166	-3.546504	7.142334	0.000000	0.000000	26.840775	1.046600	-13.285842	6.652184	-7.463779	-3.171175	147.788619	88.922830	-4.684190	3.732466	7.899635	-20.822466	36.831297	141.828762	81.685889	-12.133485	5.382268
11.183333	-0.477211	-6.389434	93.552944	0.028603	0.910170	0.613867	5.351782	-2.062911	5.078908	17.335811	0.302567	37.684110	-6.276691	0.000000	0.070055	2.081181	-8.767727	6.657832	0.116201	37.069604	9.154958	0.000000	0.073419	-0.331361	1.210914	0.136346	-0.440711	1.286596	0.120619	-0.805672	1.286596	0.083910	-0.805672	1.059550	0.068177	-0.675712	0.983868	0.041951	-0.513279	0.908185	0.524422	-3.748427	6.734740	0.000000	0.000000	26.455733	1.553803	-13.489450	8.378418	-7.059968	-5.475604	146.862683	88.839661	-5.743570	5.617911	7.787223	-20.486454	33.987129	141.516041	80.653780	-7.207458	8.109487
11.200000	-0.456226	-6.288760	93.644856	0.028699	0.910815	0.614690	5.315175	-2.045789	4.882843	17.326375	0.302402	37.607137	-6.143874	0.000000	0.088975	2.012304	-9.255200	6.832789	0.119255	37.071380	9.754918	0.000000	0.078110	-0.339994	1.143133	0.145058	-0.452192	1.214578	0.128327	-0.826661	1.214578	0.089272	-0.826661	1.000241	0.072533	-0.693316	0.928795	0.044632	-0.526651	0.857349	0.557930	-3.846079	6.357760	0.000000	0.000000	25.986703	1.986856	-13.521887	10.194516	-6.745251	-7.672558	145.720769	88.757856	-6.755548	7.407545	7.853332	-20.005644	31.174443	141.244631	79.704964	-2.575175	10.903518
11.216667	-0.407176	-6.150826	93.740331	0.028661	0.911471	0.615451	5.230316	-2.011152	4.639810	17.305315	0.302035	37.542715	-5.959665	0.000000	0.052165	1.928573	-9.555421	6.976346	0.121760	37.043715	10.139400	0.000000	0.079187	-0.340282	1.083341	0.147058	-0.452575	1.151050	0.130096	-0.827361	1.151050	0.090502	-0.827361	0.947924	0.073533	-0.693903	0.880215	0.045247	-0.527096	0.812506	0.565622	-3.849336	6.025220	0.000000	0.000000	25.483981	2.314404	-13.467531	11.981360	-6.538413	-9.803118	144.480032	88.662689	-7.572137	9.025579	8.176763	-19.386002	28.620194	140.977355	79.017911	1.521996	13.368470
